<?xml version="1.0" encoding="UTF-8" standalone="no"?>
<!DOCTYPE svg PUBLIC "-//W3C//DTD SVG 1.1//EN" "http://www.w3.org/Graphics/SVG/1.1/DTD/svg11.dtd">
<svg width="100%" height="100%" viewBox="0 0 128 128" version="1.1" xmlns="http://www.w3.org/2000/svg" xmlns:xlink="http://www.w3.org/1999/xlink" xml:space="preserve" xmlns:serif="http://www.serif.com/" style="fill-rule:evenodd;clip-rule:evenodd;stroke-linejoin:round;stroke-miterlimit:2;">
    <circle cx="63.431" cy="64.732" r="48.956" style="fill:white;"/>
    <g transform="matrix(1,0,0,1,0,-1)">
        <path d="M83.029,17.762L88.115,20.211L68.352,61.249L112.759,51.113L114.015,56.617L69.608,66.753L105.22,95.152L101.7,99.565L66.089,71.167L66.089,116.715L60.443,116.715L60.443,71.167L24.832,99.565L21.312,95.152L56.923,66.753L12.517,56.617L13.773,51.113L58.179,61.249L38.417,20.211L43.503,17.762L63.266,58.799L83.029,17.762Z" style="fill:rgb(186,186,186);"/>
    </g>
    <g transform="matrix(0.99873,0,0,0.99873,0.203097,0.203097)">
        <path d="M70.072,0.138C65.952,-0.263 61.804,-0.263 57.684,0.138L55.55,9.454C51.556,10.065 47.642,11.114 43.878,12.582L37.372,5.58C33.604,7.293 30.011,9.368 26.644,11.774L29.454,20.91C26.301,23.436 23.436,26.301 20.91,29.454L11.774,26.644C9.368,30.011 7.293,33.604 5.58,37.372L12.582,43.878C11.114,47.642 10.065,51.556 9.454,55.55L0.138,57.684C-0.263,61.804 -0.263,65.952 0.138,70.072L9.454,72.206C10.065,76.2 11.114,80.114 12.582,83.878L5.58,90.384C7.293,94.152 9.368,97.745 11.774,101.112L20.91,98.302C23.436,101.455 26.301,104.321 29.454,106.847L26.644,115.982C30.011,118.388 33.604,120.463 37.372,122.176L43.878,115.175C47.642,116.642 51.556,117.691 55.55,118.302L57.684,127.618C61.804,128.019 65.952,128.019 70.072,127.618L72.206,118.302C76.2,117.691 80.114,116.642 83.878,115.175L90.384,122.176C94.152,120.463 97.745,118.388 101.112,115.982L98.302,106.847C101.455,104.321 104.321,101.455 106.847,98.302L115.982,101.112C118.388,97.745 120.463,94.152 122.176,90.384L115.175,83.878C116.642,80.114 117.691,76.2 118.302,72.206L127.618,70.072C128.019,65.952 128.019,61.804 127.618,57.684L118.302,55.55C117.691,51.556 116.642,47.642 115.175,43.878L122.176,37.372C120.463,33.604 118.388,30.011 115.982,26.644L106.847,29.454C104.321,26.301 101.455,23.436 98.302,20.91L101.112,11.774C97.745,9.368 94.152,7.293 90.384,5.58L83.878,12.582C80.114,11.114 76.2,10.065 72.206,9.454L70.072,0.138ZM63.878,20.299C87.93,20.299 107.457,39.826 107.457,63.878C107.457,87.93 87.93,107.457 63.878,107.457C39.826,107.457 20.299,87.93 20.299,63.878C20.299,39.826 39.826,20.299 63.878,20.299Z" style="fill:rgb(140,140,140);"/>
    </g>
    <g transform="matrix(1.57576,0,0,1.57576,-37.6391,-41.8897)">
        <circle cx="64.502" cy="67.199" r="17.891" style="fill:rgb(186,186,186);"/>
    </g>
    <g transform="matrix(1.35048,-0.179313,0.183954,1.38544,-53.8894,-37.1177)">
        <text x="32.926px" y="83.494px" style="font-family:'Arial-BoldMT', 'Arial', sans-serif;font-weight:700;font-size:24px;">C<tspan x="49.058px 62.518px 82.658px 88.126px 101.586px " y="83.494px 83.494px 83.494px 83.494px 83.494px ">oming</tspan></text>
        <text x="46.392px" y="103.494px" style="font-family:'Arial-BoldMT', 'Arial', sans-serif;font-weight:700;font-size:24px;">S<tspan x="61.2px 74.66px 88.12px " y="103.494px 103.494px 103.494px ">oon</tspan></text>
    </g>
</svg>
